# xmcd
#
# Track frame offsets: 
#        150
#        20350
#        43495
#        66137
#        86255
#        113558
#        125222
#        142978
#        164535
#        186410
#        204632
#
# Disc length: 3031 seconds
#
# Revision: 0
# Processed by: cddbd v1.5.2PL0 Copyright (c) Steve Scherf et al.
# Submitted via: ExactAudioCopy v1.3
#
DISCID=9f0bd50b
DTITLE=Dana Gillespie - Staying Power
DYEAR=2003
DGENRE=Blues
TTITLE0=Sweet Tooth
TTITLE1=No Surprises
TTITLE2=Timeless
TTITLE3=Staying Power
TTITLE4=Put My Anchor Down
TTITLE5=It's What He's Got
TTITLE6=Still in Your Arms
TTITLE7=I Sigh for You
TTITLE8=Big Picture
TTITLE9=All Loved Up
TTITLE10=You're the Star
EXTD=
EXTT0=
EXTT1=
EXTT2=
EXTT3=
EXTT4=
EXTT5=
EXTT6=
EXTT7=
EXTT8=
EXTT9=
EXTT10=
PLAYORDER=
